<mxfile host="Electron" agent="Mozilla/5.0 (Windows NT 10.0; Win64; x64) AppleWebKit/537.36 (KHTML, like Gecko) draw.io/26.2.2 Chrome/134.0.6998.178 Electron/35.1.2 Safari/537.36" version="26.2.2">
  <diagram name="Page-1" id="MlPa220dh8umNjKJfZXL">
    <mxGraphModel dx="2088" dy="774" grid="1" gridSize="10" guides="1" tooltips="1" connect="1" arrows="1" fold="1" page="0" pageScale="1" pageWidth="1100" pageHeight="850" math="0" shadow="0">
      <root>
        <mxCell id="0" />
        <mxCell id="1" parent="0" />
        <mxCell id="qz_-ruWhzDnlkJ85Ku8s-1" value="" style="rounded=0;whiteSpace=wrap;html=1;fillColor=none;strokeColor=#FFD966;" parent="1" vertex="1">
          <mxGeometry x="300" y="60" width="240" height="520" as="geometry" />
        </mxCell>
        <mxCell id="xUOfYF5j53b8p_8O5GNH-8" value="" style="rounded=0;whiteSpace=wrap;html=1;fillColor=none;dashed=1;" parent="1" vertex="1">
          <mxGeometry x="-680" y="60" width="240" height="520" as="geometry" />
        </mxCell>
        <mxCell id="xUOfYF5j53b8p_8O5GNH-1" value="" style="rounded=0;whiteSpace=wrap;html=1;fillColor=none;strokeColor=#FFD966;" parent="1" vertex="1">
          <mxGeometry x="-360" y="60" width="240" height="520" as="geometry" />
        </mxCell>
        <mxCell id="xUOfYF5j53b8p_8O5GNH-18" style="edgeStyle=orthogonalEdgeStyle;rounded=0;orthogonalLoop=1;jettySize=auto;html=1;" parent="1" source="xUOfYF5j53b8p_8O5GNH-3" target="xUOfYF5j53b8p_8O5GNH-14" edge="1">
          <mxGeometry relative="1" as="geometry" />
        </mxCell>
        <mxCell id="xUOfYF5j53b8p_8O5GNH-20" style="edgeStyle=orthogonalEdgeStyle;rounded=0;orthogonalLoop=1;jettySize=auto;html=1;entryX=0;entryY=0.5;entryDx=0;entryDy=0;" parent="1" source="xUOfYF5j53b8p_8O5GNH-3" target="xUOfYF5j53b8p_8O5GNH-13" edge="1">
          <mxGeometry relative="1" as="geometry" />
        </mxCell>
        <mxCell id="xUOfYF5j53b8p_8O5GNH-21" style="edgeStyle=orthogonalEdgeStyle;rounded=0;orthogonalLoop=1;jettySize=auto;html=1;entryX=0;entryY=0.5;entryDx=0;entryDy=0;" parent="1" source="xUOfYF5j53b8p_8O5GNH-3" target="xUOfYF5j53b8p_8O5GNH-15" edge="1">
          <mxGeometry relative="1" as="geometry" />
        </mxCell>
        <mxCell id="xUOfYF5j53b8p_8O5GNH-3" value="" style="image;aspect=fixed;html=1;points=[];align=center;fontSize=12;image=img/lib/azure2/general/Folder_Blank.svg;" parent="1" vertex="1">
          <mxGeometry x="-594.5" y="188" width="69" height="56.00000000000001" as="geometry" />
        </mxCell>
        <mxCell id="xUOfYF5j53b8p_8O5GNH-22" style="edgeStyle=orthogonalEdgeStyle;rounded=0;orthogonalLoop=1;jettySize=auto;html=1;entryX=0;entryY=0.5;entryDx=0;entryDy=0;" parent="1" source="xUOfYF5j53b8p_8O5GNH-4" target="xUOfYF5j53b8p_8O5GNH-11" edge="1">
          <mxGeometry relative="1" as="geometry" />
        </mxCell>
        <mxCell id="xUOfYF5j53b8p_8O5GNH-23" style="edgeStyle=orthogonalEdgeStyle;rounded=0;orthogonalLoop=1;jettySize=auto;html=1;entryX=0;entryY=0.5;entryDx=0;entryDy=0;" parent="1" source="xUOfYF5j53b8p_8O5GNH-4" target="xUOfYF5j53b8p_8O5GNH-10" edge="1">
          <mxGeometry relative="1" as="geometry" />
        </mxCell>
        <mxCell id="xUOfYF5j53b8p_8O5GNH-24" style="edgeStyle=orthogonalEdgeStyle;rounded=0;orthogonalLoop=1;jettySize=auto;html=1;entryX=0;entryY=0.5;entryDx=0;entryDy=0;" parent="1" source="xUOfYF5j53b8p_8O5GNH-4" target="xUOfYF5j53b8p_8O5GNH-12" edge="1">
          <mxGeometry relative="1" as="geometry" />
        </mxCell>
        <mxCell id="xUOfYF5j53b8p_8O5GNH-4" value="" style="image;aspect=fixed;html=1;points=[];align=center;fontSize=12;image=img/lib/azure2/general/Folder_Blank.svg;" parent="1" vertex="1">
          <mxGeometry x="-600" y="418" width="69" height="56.00000000000001" as="geometry" />
        </mxCell>
        <mxCell id="xUOfYF5j53b8p_8O5GNH-5" value="CRM" style="text;html=1;align=center;verticalAlign=middle;whiteSpace=wrap;rounded=0;" parent="1" vertex="1">
          <mxGeometry x="-590.5" y="250" width="60" height="30" as="geometry" />
        </mxCell>
        <mxCell id="xUOfYF5j53b8p_8O5GNH-7" value="ERP" style="text;html=1;align=center;verticalAlign=middle;whiteSpace=wrap;rounded=0;" parent="1" vertex="1">
          <mxGeometry x="-590.75" y="470" width="60" height="30" as="geometry" />
        </mxCell>
        <mxCell id="xUOfYF5j53b8p_8O5GNH-2" value="&lt;font style=&quot;font-size: 24px;&quot;&gt;Bronze Layer&lt;/font&gt;" style="rounded=0;whiteSpace=wrap;html=1;strokeColor=none;fillColor=#FFD966;fontColor=#000000;" parent="1" vertex="1">
          <mxGeometry x="-320" y="20" width="160" height="80" as="geometry" />
        </mxCell>
        <mxCell id="xUOfYF5j53b8p_8O5GNH-9" value="&lt;font style=&quot;font-size: 24px;&quot;&gt;Sources&lt;/font&gt;" style="rounded=0;whiteSpace=wrap;html=1;strokeColor=none;" parent="1" vertex="1">
          <mxGeometry x="-645.5" y="20" width="160" height="80" as="geometry" />
        </mxCell>
        <mxCell id="wAyP5xPk_sbLw1o8onBP-13" style="edgeStyle=orthogonalEdgeStyle;rounded=0;orthogonalLoop=1;jettySize=auto;html=1;exitX=1;exitY=0.5;exitDx=0;exitDy=0;" parent="1" source="xUOfYF5j53b8p_8O5GNH-10" target="wAyP5xPk_sbLw1o8onBP-4" edge="1">
          <mxGeometry relative="1" as="geometry" />
        </mxCell>
        <mxCell id="xUOfYF5j53b8p_8O5GNH-10" value="&lt;span style=&quot;font-size: 17px;&quot;&gt;erp_cust_az12&lt;/span&gt;" style="rounded=0;whiteSpace=wrap;html=1;strokeColor=none;fillColor=#FFD966;fontColor=#000000;" parent="1" vertex="1">
          <mxGeometry x="-320" y="360" width="160" height="40" as="geometry" />
        </mxCell>
        <mxCell id="wAyP5xPk_sbLw1o8onBP-14" style="edgeStyle=orthogonalEdgeStyle;rounded=0;orthogonalLoop=1;jettySize=auto;html=1;exitX=1;exitY=0.5;exitDx=0;exitDy=0;entryX=0;entryY=0.5;entryDx=0;entryDy=0;" parent="1" source="xUOfYF5j53b8p_8O5GNH-11" target="wAyP5xPk_sbLw1o8onBP-5" edge="1">
          <mxGeometry relative="1" as="geometry" />
        </mxCell>
        <mxCell id="xUOfYF5j53b8p_8O5GNH-11" value="&lt;font style=&quot;font-size: 17px;&quot;&gt;erp_loc_a101&lt;/font&gt;" style="rounded=0;whiteSpace=wrap;html=1;strokeColor=none;fillColor=#FFD966;fontColor=#000000;" parent="1" vertex="1">
          <mxGeometry x="-320" y="426" width="160" height="40" as="geometry" />
        </mxCell>
        <mxCell id="wAyP5xPk_sbLw1o8onBP-15" style="edgeStyle=orthogonalEdgeStyle;rounded=0;orthogonalLoop=1;jettySize=auto;html=1;exitX=1;exitY=0.5;exitDx=0;exitDy=0;entryX=0;entryY=0.5;entryDx=0;entryDy=0;" parent="1" source="xUOfYF5j53b8p_8O5GNH-12" target="wAyP5xPk_sbLw1o8onBP-6" edge="1">
          <mxGeometry relative="1" as="geometry" />
        </mxCell>
        <mxCell id="xUOfYF5j53b8p_8O5GNH-12" value="&lt;font style=&quot;font-size: 17px;&quot;&gt;erp_px_cat_g1v2&lt;/font&gt;" style="rounded=0;whiteSpace=wrap;html=1;strokeColor=none;fillColor=#FFD966;fontColor=#000000;" parent="1" vertex="1">
          <mxGeometry x="-320" y="490" width="160" height="40" as="geometry" />
        </mxCell>
        <mxCell id="wAyP5xPk_sbLw1o8onBP-10" style="edgeStyle=orthogonalEdgeStyle;rounded=0;orthogonalLoop=1;jettySize=auto;html=1;exitX=1;exitY=0.5;exitDx=0;exitDy=0;" parent="1" source="xUOfYF5j53b8p_8O5GNH-13" target="wAyP5xPk_sbLw1o8onBP-7" edge="1">
          <mxGeometry relative="1" as="geometry" />
        </mxCell>
        <mxCell id="xUOfYF5j53b8p_8O5GNH-13" value="&lt;font style=&quot;font-size: 17px;&quot;&gt;crm_sales_details&lt;/font&gt;" style="rounded=0;whiteSpace=wrap;html=1;strokeColor=none;fillColor=#FFD966;fontColor=#000000;" parent="1" vertex="1">
          <mxGeometry x="-320" y="130" width="160" height="40" as="geometry" />
        </mxCell>
        <mxCell id="wAyP5xPk_sbLw1o8onBP-11" style="edgeStyle=orthogonalEdgeStyle;rounded=0;orthogonalLoop=1;jettySize=auto;html=1;exitX=1;exitY=0.5;exitDx=0;exitDy=0;entryX=0;entryY=0.5;entryDx=0;entryDy=0;" parent="1" source="xUOfYF5j53b8p_8O5GNH-14" target="wAyP5xPk_sbLw1o8onBP-8" edge="1">
          <mxGeometry relative="1" as="geometry" />
        </mxCell>
        <mxCell id="xUOfYF5j53b8p_8O5GNH-14" value="&lt;font style=&quot;font-size: 17px;&quot;&gt;crm_cust_info&lt;/font&gt;" style="rounded=0;whiteSpace=wrap;html=1;strokeColor=none;fillColor=#FFD966;fontColor=#000000;" parent="1" vertex="1">
          <mxGeometry x="-320" y="196" width="160" height="40" as="geometry" />
        </mxCell>
        <mxCell id="wAyP5xPk_sbLw1o8onBP-12" style="edgeStyle=orthogonalEdgeStyle;rounded=0;orthogonalLoop=1;jettySize=auto;html=1;entryX=0;entryY=0.5;entryDx=0;entryDy=0;" parent="1" source="xUOfYF5j53b8p_8O5GNH-15" target="wAyP5xPk_sbLw1o8onBP-9" edge="1">
          <mxGeometry relative="1" as="geometry" />
        </mxCell>
        <mxCell id="xUOfYF5j53b8p_8O5GNH-15" value="&lt;font style=&quot;font-size: 17px;&quot;&gt;crm_prd_info&lt;/font&gt;" style="rounded=0;whiteSpace=wrap;html=1;strokeColor=none;fillColor=#FFD966;fontColor=#000000;" parent="1" vertex="1">
          <mxGeometry x="-320" y="260" width="160" height="40" as="geometry" />
        </mxCell>
        <mxCell id="wAyP5xPk_sbLw1o8onBP-2" value="" style="rounded=0;whiteSpace=wrap;html=1;fillColor=none;strokeColor=#CCCCCC;" parent="1" vertex="1">
          <mxGeometry x="-40" y="60" width="240" height="520" as="geometry" />
        </mxCell>
        <mxCell id="wAyP5xPk_sbLw1o8onBP-3" value="&lt;span style=&quot;font-size: 24px;&quot;&gt;Silver Layer&lt;/span&gt;" style="rounded=0;whiteSpace=wrap;html=1;strokeColor=none;fillColor=#CCCCCC;fontColor=#000000;" parent="1" vertex="1">
          <mxGeometry y="20" width="160" height="80" as="geometry" />
        </mxCell>
        <mxCell id="MgctCPEdbKz7LjmLkjeK-4" style="rounded=0;orthogonalLoop=1;jettySize=auto;html=1;entryX=0;entryY=0.5;entryDx=0;entryDy=0;jumpStyle=gap;" edge="1" parent="1" source="wAyP5xPk_sbLw1o8onBP-4" target="qz_-ruWhzDnlkJ85Ku8s-6">
          <mxGeometry relative="1" as="geometry" />
        </mxCell>
        <mxCell id="wAyP5xPk_sbLw1o8onBP-4" value="&lt;span style=&quot;font-size: 17px;&quot;&gt;erp_cust_az12&lt;/span&gt;" style="rounded=0;whiteSpace=wrap;html=1;strokeColor=none;fillColor=#CCCCCC;fontColor=#000000;" parent="1" vertex="1">
          <mxGeometry y="360" width="160" height="40" as="geometry" />
        </mxCell>
        <mxCell id="MgctCPEdbKz7LjmLkjeK-3" style="rounded=0;orthogonalLoop=1;jettySize=auto;html=1;exitX=1;exitY=0.5;exitDx=0;exitDy=0;entryX=0;entryY=0.5;entryDx=0;entryDy=0;jumpStyle=gap;" edge="1" parent="1" source="wAyP5xPk_sbLw1o8onBP-5" target="qz_-ruWhzDnlkJ85Ku8s-6">
          <mxGeometry relative="1" as="geometry" />
        </mxCell>
        <mxCell id="wAyP5xPk_sbLw1o8onBP-5" value="&lt;font style=&quot;font-size: 17px;&quot;&gt;erp_loc_a101&lt;/font&gt;" style="rounded=0;whiteSpace=wrap;html=1;strokeColor=none;fillColor=#CCCCCC;fontColor=#000000;" parent="1" vertex="1">
          <mxGeometry y="426" width="160" height="40" as="geometry" />
        </mxCell>
        <mxCell id="MgctCPEdbKz7LjmLkjeK-5" style="rounded=0;orthogonalLoop=1;jettySize=auto;html=1;exitX=1;exitY=0.5;exitDx=0;exitDy=0;entryX=0;entryY=0.5;entryDx=0;entryDy=0;jumpStyle=gap;" edge="1" parent="1" source="wAyP5xPk_sbLw1o8onBP-6" target="qz_-ruWhzDnlkJ85Ku8s-7">
          <mxGeometry relative="1" as="geometry" />
        </mxCell>
        <mxCell id="wAyP5xPk_sbLw1o8onBP-6" value="&lt;font style=&quot;font-size: 17px;&quot;&gt;erp_px_cat_g1v2&lt;/font&gt;" style="rounded=0;whiteSpace=wrap;html=1;strokeColor=none;fillColor=#CCCCCC;fontColor=#000000;" parent="1" vertex="1">
          <mxGeometry y="490" width="160" height="40" as="geometry" />
        </mxCell>
        <mxCell id="qz_-ruWhzDnlkJ85Ku8s-9" style="edgeStyle=orthogonalEdgeStyle;rounded=0;orthogonalLoop=1;jettySize=auto;html=1;exitX=1;exitY=0.5;exitDx=0;exitDy=0;entryX=0;entryY=0.5;entryDx=0;entryDy=0;" parent="1" source="wAyP5xPk_sbLw1o8onBP-7" target="qz_-ruWhzDnlkJ85Ku8s-8" edge="1">
          <mxGeometry relative="1" as="geometry" />
        </mxCell>
        <mxCell id="wAyP5xPk_sbLw1o8onBP-7" value="&lt;font style=&quot;font-size: 17px;&quot;&gt;crm_sales_details&lt;/font&gt;" style="rounded=0;whiteSpace=wrap;html=1;strokeColor=none;fillColor=#CCCCCC;fontColor=#000000;" parent="1" vertex="1">
          <mxGeometry y="130" width="160" height="40" as="geometry" />
        </mxCell>
        <mxCell id="MgctCPEdbKz7LjmLkjeK-1" style="rounded=0;orthogonalLoop=1;jettySize=auto;html=1;exitX=1;exitY=0.5;exitDx=0;exitDy=0;entryX=0;entryY=0.5;entryDx=0;entryDy=0;jumpStyle=gap;" edge="1" parent="1" source="wAyP5xPk_sbLw1o8onBP-8" target="qz_-ruWhzDnlkJ85Ku8s-6">
          <mxGeometry relative="1" as="geometry" />
        </mxCell>
        <mxCell id="wAyP5xPk_sbLw1o8onBP-8" value="&lt;font style=&quot;font-size: 17px;&quot;&gt;crm_cust_info&lt;/font&gt;" style="rounded=0;whiteSpace=wrap;html=1;strokeColor=none;fillColor=#CCCCCC;fontColor=#000000;" parent="1" vertex="1">
          <mxGeometry y="196" width="160" height="40" as="geometry" />
        </mxCell>
        <mxCell id="MgctCPEdbKz7LjmLkjeK-2" style="rounded=0;orthogonalLoop=1;jettySize=auto;html=1;exitX=1;exitY=0.5;exitDx=0;exitDy=0;entryX=0;entryY=0.5;entryDx=0;entryDy=0;jumpStyle=gap;" edge="1" parent="1" source="wAyP5xPk_sbLw1o8onBP-9" target="qz_-ruWhzDnlkJ85Ku8s-7">
          <mxGeometry relative="1" as="geometry" />
        </mxCell>
        <mxCell id="wAyP5xPk_sbLw1o8onBP-9" value="&lt;font style=&quot;font-size: 17px;&quot;&gt;crm_prd_info&lt;/font&gt;" style="rounded=0;whiteSpace=wrap;html=1;strokeColor=none;fillColor=#CCCCCC;fontColor=#000000;" parent="1" vertex="1">
          <mxGeometry y="260" width="160" height="40" as="geometry" />
        </mxCell>
        <mxCell id="qz_-ruWhzDnlkJ85Ku8s-2" value="&lt;span style=&quot;font-size: 24px;&quot;&gt;Gold Layer&lt;/span&gt;" style="rounded=0;whiteSpace=wrap;html=1;strokeColor=#FFFF66;fillColor=#FFFF66;fontColor=#000000;" parent="1" vertex="1">
          <mxGeometry x="340" y="20" width="160" height="80" as="geometry" />
        </mxCell>
        <mxCell id="qz_-ruWhzDnlkJ85Ku8s-6" value="&lt;font style=&quot;font-size: 17px;&quot;&gt;dim_customers&lt;/font&gt;" style="rounded=0;whiteSpace=wrap;html=1;strokeColor=#FFFF66;fillColor=#FFFF66;fontColor=#000000;" parent="1" vertex="1">
          <mxGeometry x="350" y="280" width="160" height="40" as="geometry" />
        </mxCell>
        <mxCell id="qz_-ruWhzDnlkJ85Ku8s-7" value="&lt;font style=&quot;font-size: 17px;&quot;&gt;dim_products&lt;/font&gt;" style="rounded=0;whiteSpace=wrap;html=1;strokeColor=#FFFF66;fillColor=#FFFF66;fontColor=#000000;" parent="1" vertex="1">
          <mxGeometry x="340" y="418" width="160" height="40" as="geometry" />
        </mxCell>
        <mxCell id="qz_-ruWhzDnlkJ85Ku8s-8" value="&lt;span style=&quot;font-size: 17px;&quot;&gt;fact_sales&lt;/span&gt;" style="rounded=0;whiteSpace=wrap;html=1;strokeColor=#FFFF66;fillColor=#FFFF66;fontColor=#000000;" parent="1" vertex="1">
          <mxGeometry x="340" y="130" width="160" height="40" as="geometry" />
        </mxCell>
      </root>
    </mxGraphModel>
  </diagram>
</mxfile>
